<?xml version="1.0" encoding="UTF-8"?>
<svg width="48px" height="48px" viewBox="0 0 48 48" version="1.1" xmlns="http://www.w3.org/2000/svg" xmlns:xlink="http://www.w3.org/1999/xlink">
    <!-- Generator: Sketch 49.1 (51147) - http://www.bohemiancoding.com/sketch -->
    <title>Shape</title>
    <desc>Created with Sketch.</desc>
    <defs></defs>
    <g id="Page-1" stroke="none" stroke-width="1" fill="none" fill-rule="evenodd">
        <g id="if_link_328008" transform="translate(-106.000000, -106.000000)" fill="#FFFFFF" fill-rule="nonzero">
            <path d="M153.117686,106.877079 C151.944875,105.70764 150.026965,105.70764 148.862059,106.877079 L142.758117,112.988368 C140.252684,111.324933 137.381403,110.499487 134.49964,110.499487 C130.658492,110.499487 126.770088,111.963605 123.894511,114.894591 L114.894544,123.893909 C109.762875,129.019783 109.129299,136.947602 112.983851,142.764899 L106.879737,148.873782 C105.706754,150.04408 105.706754,151.951162 106.879737,153.11579 C107.463307,153.703259 108.226965,154 108.997326,154 C109.76803,154 110.533751,153.703259 111.115946,153.11579 L117.228308,147.006392 C119.727554,148.671029 122.617738,149.500427 125.499672,149.500427 C129.285316,149.500427 133.172173,148.033388 136.10377,145.099653 L145.082086,136.101709 C150.21702,130.97721 150.856782,123.046298 146.993982,117.235187 L153.117686,111.120462 C154.294105,109.94982 154.294105,108.049954 153.117686,106.877079 Z M143.477784,125.497549 C143.477784,127.900517 142.541082,130.16551 140.840206,131.858842 L131.859141,140.858161 C130.158952,142.560943 127.853542,143.495326 125.499501,143.495326 C124.138181,143.495326 122.838724,143.165594 121.644949,142.594449 L126.069667,138.115151 C127.242649,136.947602 127.242649,135.046534 126.069667,133.880016 C124.949955,132.707485 123.048541,132.707485 121.881058,133.880016 L117.399976,138.351754 C116.824998,137.164445 116.499189,135.860124 116.499189,134.497726 C116.499189,132.096476 117.435891,129.831483 119.138314,128.136604 L128.083121,119.137286 C129.782622,117.435706 132.095937,116.49909 134.499812,116.49909 C135.853571,116.49909 137.15045,116.83243 138.345428,117.401169 L133.782894,121.970847 C132.609568,123.143894 132.609568,125.039464 133.782894,126.214058 C134.367495,126.7962 135.139746,127.089161 135.903061,127.089161 C136.667407,127.089161 137.430893,126.7962 138.018587,126.214058 L142.576653,121.644724 C143.150944,122.832376 143.477784,124.138244 143.477784,125.497549 Z" id="Shape"></path>
        </g>
    </g>
</svg>